<svg width="16" height="16" viewBox="0 0 16 16" fill="none" xmlns="http://www.w3.org/2000/svg">
<path d="M7 2.5C7 1.67188 6.32812 1 5.5 1H2.5C1.67188 1 1 1.67188 1 2.5V5.5C1 6.32812 1.67188 7 2.5 7H5.5C6.32812 7 7 6.32812 7 5.5V2.5ZM7 10.5C7 9.67188 6.32812 9 5.5 9H2.5C1.67188 9 1 9.67188 1 10.5V13.5C1 14.3281 1.67188 15 2.5 15H5.5C6.32812 15 7 14.3281 7 13.5V10.5ZM9 2.5V5.5C9 6.32812 9.67188 7 10.5 7H13.5C14.3281 7 15 6.32812 15 5.5V2.5C15 1.67188 14.3281 1 13.5 1H10.5C9.67188 1 9 1.67188 9 2.5ZM15 10.5C15 9.67188 14.3281 9 13.5 9H10.5C9.67188 9 9 9.67188 9 10.5V13.5C9 14.3281 9.67188 15 10.5 15H13.5C14.3281 15 15 14.3281 15 13.5V10.5Z" fill="#131313"/>
</svg>
