<svg width="752" height="149" viewBox="0 0 752 149" fill="none" xmlns="http://www.w3.org/2000/svg">
<path d="M4 122.411V5.18034L84.997 26.3584V143.589L4 122.411Z" stroke="#008000" stroke-width="8"/>
<path d="M179 122.411V5.18034L98.003 26.3584V143.589L179 122.411Z" stroke="#089DA1" stroke-width="8"/>
<path d="M221.3 103C220.16 103 219.59 102.25 219.59 100.75C219.59 99.61 219.98 98.71 220.76 98.05C221.54 97.33 222.83 96.76 224.63 96.34L226.43 95.89V47.56L224.63 47.11C222.83 46.63 221.54 46.06 220.76 45.4C219.98 44.74 219.59 43.84 219.59 42.7C219.59 41.2 220.16 40.45 221.3 40.45H250.55C257.33 40.45 262.52 41.95 266.12 44.95C269.78 47.95 271.61 52.06 271.61 57.28C271.61 60.16 270.83 62.74 269.27 65.02C267.71 67.24 265.52 68.92 262.7 70.06V70.42C266.66 71.56 269.72 73.48 271.88 76.18C274.04 78.82 275.12 81.94 275.12 85.54C275.12 91.06 273.2 95.35 269.36 98.41C265.52 101.47 260.36 103 253.88 103H221.3ZM250.64 67.45C253.64 67.45 256.01 66.55 257.75 64.75C259.49 62.89 260.36 60.49 260.36 57.55C260.36 54.49 259.46 52.06 257.66 50.26C255.86 48.4 253.31 47.47 250.01 47.47H237.68V67.45H250.64ZM252.35 95.98C256.13 95.98 258.98 95.05 260.9 93.19C262.88 91.33 263.87 88.72 263.87 85.36C263.87 82 262.88 79.33 260.9 77.35C258.98 75.37 256.22 74.38 252.62 74.38H237.68V95.98H252.35ZM307.05 104.26C302.85 104.26 299.07 103.39 295.71 101.65C292.35 99.91 289.68 97.3 287.7 93.82C285.78 90.34 284.82 86.08 284.82 81.04C284.82 76 285.78 71.77 287.7 68.35C289.68 64.87 292.35 62.26 295.71 60.52C299.07 58.78 302.85 57.91 307.05 57.91C311.25 57.91 315 58.78 318.3 60.52C321.66 62.26 324.3 64.87 326.22 68.35C328.2 71.77 329.19 76 329.19 81.04C329.19 86.08 328.2 90.34 326.22 93.82C324.3 97.3 321.66 99.91 318.3 101.65C315 103.39 311.25 104.26 307.05 104.26ZM307.05 97.78C310.77 97.78 313.62 96.34 315.6 93.46C317.64 90.58 318.66 86.44 318.66 81.04C318.66 75.7 317.64 71.59 315.6 68.71C313.62 65.83 310.77 64.39 307.05 64.39C303.33 64.39 300.45 65.83 298.41 68.71C296.43 71.59 295.44 75.7 295.44 81.04C295.44 86.44 296.43 90.58 298.41 93.46C300.45 96.34 303.33 97.78 307.05 97.78ZM359.573 104.26C355.373 104.26 351.593 103.39 348.233 101.65C344.873 99.91 342.203 97.3 340.223 93.82C338.303 90.34 337.343 86.08 337.343 81.04C337.343 76 338.303 71.77 340.223 68.35C342.203 64.87 344.873 62.26 348.233 60.52C351.593 58.78 355.373 57.91 359.573 57.91C363.773 57.91 367.523 58.78 370.823 60.52C374.183 62.26 376.823 64.87 378.743 68.35C380.723 71.77 381.713 76 381.713 81.04C381.713 86.08 380.723 90.34 378.743 93.82C376.823 97.3 374.183 99.91 370.823 101.65C367.523 103.39 363.773 104.26 359.573 104.26ZM359.573 97.78C363.293 97.78 366.143 96.34 368.123 93.46C370.163 90.58 371.183 86.44 371.183 81.04C371.183 75.7 370.163 71.59 368.123 68.71C366.143 65.83 363.293 64.39 359.573 64.39C355.853 64.39 352.973 65.83 350.933 68.71C348.953 71.59 347.963 75.7 347.963 81.04C347.963 86.44 348.953 90.58 350.933 93.46C352.973 96.34 355.853 97.78 359.573 97.78ZM391.169 103C389.789 103 389.099 102.16 389.099 100.48C389.099 98.08 390.689 96.88 393.869 96.88H395.309V45.22H391.169C389.789 45.22 389.099 44.38 389.099 42.7C389.099 41.5 389.519 40.6 390.359 40C391.199 39.4 392.369 39.1 393.869 39.1H405.839V96.88L409.349 98.32C410.549 98.8 411.389 99.28 411.869 99.76C412.349 100.24 412.589 100.81 412.589 101.47C412.589 102.49 412.109 103 411.149 103H391.169ZM405.839 80.14L421.949 65.29H416.549C415.829 65.29 415.259 65.05 414.839 64.57C414.479 64.09 414.299 63.43 414.299 62.59C414.299 61.33 414.749 60.4 415.649 59.8C416.549 59.14 417.779 58.81 419.339 58.81H436.079C437.279 58.81 437.879 59.53 437.879 60.97C437.879 62.41 436.619 63.55 434.099 64.39L430.949 65.29L417.089 78.43L432.749 96.79L436.979 98.05C438.239 98.47 439.169 98.95 439.769 99.49C440.369 99.97 440.669 100.6 440.669 101.38C440.669 102.46 440.159 103 439.139 103H424.289L405.839 80.14Z" fill="#008000"/>
<path d="M450.818 103C449.678 103 449.108 102.25 449.108 100.75C449.108 99.61 449.498 98.71 450.278 98.05C451.058 97.33 452.348 96.76 454.148 96.34L455.948 95.89V47.56L454.148 47.11C452.348 46.63 451.058 46.06 450.278 45.4C449.498 44.74 449.108 43.84 449.108 42.7C449.108 41.2 449.678 40.45 450.818 40.45H480.068C486.848 40.45 492.038 41.95 495.638 44.95C499.298 47.95 501.128 52.06 501.128 57.28C501.128 60.16 500.348 62.74 498.788 65.02C497.228 67.24 495.038 68.92 492.218 70.06V70.42C496.178 71.56 499.238 73.48 501.398 76.18C503.558 78.82 504.638 81.94 504.638 85.54C504.638 91.06 502.718 95.35 498.878 98.41C495.038 101.47 489.878 103 483.398 103H450.818ZM480.158 67.45C483.158 67.45 485.528 66.55 487.268 64.75C489.008 62.89 489.878 60.49 489.878 57.55C489.878 54.49 488.978 52.06 487.178 50.26C485.378 48.4 482.828 47.47 479.528 47.47H467.198V67.45H480.158ZM481.868 95.98C485.648 95.98 488.498 95.05 490.418 93.19C492.398 91.33 493.388 88.72 493.388 85.36C493.388 82 492.398 79.33 490.418 77.35C488.498 75.37 485.738 74.38 482.138 74.38H467.198V95.98H481.868ZM528.647 104.26C524.807 104.26 521.507 103.18 518.747 101.02C516.047 98.8 514.697 95.68 514.697 91.66C514.697 87.1 516.317 83.77 519.557 81.67C522.797 79.57 526.997 78.13 532.157 77.35L542.777 75.73V72.49C542.777 69.97 541.997 67.99 540.437 66.55C538.877 65.11 536.717 64.39 533.957 64.39C532.277 64.39 530.417 64.66 528.377 65.2C526.397 65.74 524.837 66.37 523.697 67.09L522.797 70.78C522.497 71.98 522.047 72.88 521.447 73.48C520.907 74.02 520.187 74.29 519.287 74.29C518.627 74.29 518.117 74.14 517.757 73.84C517.457 73.48 517.307 73.06 517.307 72.58V62.95C519.887 61.45 522.827 60.25 526.127 59.35C529.427 58.39 532.637 57.91 535.757 57.91C540.977 57.91 545.207 59.2 548.447 61.78C551.687 64.3 553.307 67.96 553.307 72.76V97.15L556.187 98.32C557.387 98.86 558.227 99.37 558.707 99.85C559.187 100.27 559.427 100.81 559.427 101.47C559.427 102.49 558.977 103 558.077 103H542.957V98.05H542.597C541.037 99.91 538.997 101.41 536.477 102.55C534.017 103.69 531.407 104.26 528.647 104.26ZM531.977 97.42C533.837 97.42 535.577 96.97 537.197 96.07C538.877 95.17 540.227 94 541.247 92.56C542.267 91.06 542.777 89.47 542.777 87.79V81.94L534.137 83.29C528.197 84.31 525.227 86.95 525.227 91.21C525.227 93.13 525.827 94.66 527.027 95.8C528.227 96.88 529.877 97.42 531.977 97.42ZM566.162 95.62L588.392 65.29H573.452L572.552 69.25C572.252 70.45 571.862 71.35 571.382 71.95C570.902 72.49 570.182 72.76 569.222 72.76C568.562 72.76 568.052 72.58 567.692 72.22C567.392 71.86 567.242 71.41 567.242 70.87V58.81H600.632V66.19L578.402 96.52H595.232L596.132 92.56C596.432 91.36 596.822 90.49 597.302 89.95C597.842 89.35 598.562 89.05 599.462 89.05C600.122 89.05 600.632 89.23 600.992 89.59C601.352 89.95 601.532 90.37 601.532 90.85V103H566.162V95.62ZM624.202 104.26C620.362 104.26 617.062 103.18 614.302 101.02C611.602 98.8 610.252 95.68 610.252 91.66C610.252 87.1 611.872 83.77 615.112 81.67C618.352 79.57 622.552 78.13 627.712 77.35L638.332 75.73V72.49C638.332 69.97 637.552 67.99 635.992 66.55C634.432 65.11 632.272 64.39 629.512 64.39C627.832 64.39 625.972 64.66 623.932 65.2C621.952 65.74 620.392 66.37 619.252 67.09L618.352 70.78C618.052 71.98 617.602 72.88 617.002 73.48C616.462 74.02 615.742 74.29 614.842 74.29C614.182 74.29 613.672 74.14 613.312 73.84C613.012 73.48 612.862 73.06 612.862 72.58V62.95C615.442 61.45 618.382 60.25 621.682 59.35C624.982 58.39 628.192 57.91 631.312 57.91C636.532 57.91 640.762 59.2 644.002 61.78C647.242 64.3 648.862 67.96 648.862 72.76V97.15L651.742 98.32C652.942 98.86 653.782 99.37 654.262 99.85C654.742 100.27 654.982 100.81 654.982 101.47C654.982 102.49 654.532 103 653.632 103H638.512V98.05H638.152C636.592 99.91 634.552 101.41 632.032 102.55C629.572 103.69 626.962 104.26 624.202 104.26ZM627.532 97.42C629.392 97.42 631.132 96.97 632.752 96.07C634.432 95.17 635.782 94 636.802 92.56C637.822 91.06 638.332 89.47 638.332 87.79V81.94L629.692 83.29C623.752 84.31 620.782 86.95 620.782 91.21C620.782 93.13 621.382 94.66 622.582 95.8C623.782 96.88 625.432 97.42 627.532 97.42ZM675.846 104.26C672.006 104.26 668.706 103.18 665.946 101.02C663.246 98.8 661.896 95.68 661.896 91.66C661.896 87.1 663.516 83.77 666.756 81.67C669.996 79.57 674.196 78.13 679.356 77.35L689.976 75.73V72.49C689.976 69.97 689.196 67.99 687.636 66.55C686.076 65.11 683.916 64.39 681.156 64.39C679.476 64.39 677.616 64.66 675.576 65.2C673.596 65.74 672.036 66.37 670.896 67.09L669.996 70.78C669.696 71.98 669.246 72.88 668.646 73.48C668.106 74.02 667.386 74.29 666.486 74.29C665.826 74.29 665.316 74.14 664.956 73.84C664.656 73.48 664.506 73.06 664.506 72.58V62.95C667.086 61.45 670.026 60.25 673.326 59.35C676.626 58.39 679.836 57.91 682.956 57.91C688.176 57.91 692.406 59.2 695.646 61.78C698.886 64.3 700.506 67.96 700.506 72.76V97.15L703.386 98.32C704.586 98.86 705.426 99.37 705.906 99.85C706.386 100.27 706.626 100.81 706.626 101.47C706.626 102.49 706.176 103 705.276 103H690.156V98.05H689.796C688.236 99.91 686.196 101.41 683.676 102.55C681.216 103.69 678.606 104.26 675.846 104.26ZM679.176 97.42C681.036 97.42 682.776 96.97 684.396 96.07C686.076 95.17 687.426 94 688.446 92.56C689.466 91.06 689.976 89.47 689.976 87.79V81.94L681.336 83.29C675.396 84.31 672.426 86.95 672.426 91.21C672.426 93.13 673.026 94.66 674.226 95.8C675.426 96.88 677.076 97.42 679.176 97.42ZM715.971 103C714.591 103 713.901 102.16 713.901 100.48C713.901 98.08 715.491 96.88 718.671 96.88H720.111V64.93H715.971C714.591 64.93 713.901 64.09 713.901 62.41C713.901 61.21 714.321 60.31 715.161 59.71C716.001 59.11 717.171 58.81 718.671 58.81H730.191V67.9H730.461C732.621 65.08 735.081 62.71 737.841 60.79C740.601 58.87 743.241 57.91 745.761 57.91C747.501 57.91 748.851 58.39 749.811 59.35C750.771 60.31 751.251 61.54 751.251 63.04C751.251 63.94 751.071 64.84 750.711 65.74C750.411 66.58 749.991 67.27 749.451 67.81C742.551 67.81 736.281 70.09 730.641 74.65V96.88L734.241 98.32C735.441 98.86 736.281 99.37 736.761 99.85C737.241 100.27 737.481 100.81 737.481 101.47C737.481 102.49 737.031 103 736.131 103H715.971Z" fill="#089DA1"/>
</svg>
